<svg xmlns="http://www.w3.org/2000/svg" width="59" height="52" fill="none" xmlns:v="https://vecta.io/nano"><path d="M24.018 25.507c-.348-.403-.96-.459-1.378-.111l-6.304 5.366c-.223.181-.348.459-.348.737s.125.556.348.737L22.64 37.6c.403.347 1.03.306 1.378-.111.348-.403.306-1.029-.111-1.376l-5.427-4.615 5.427-4.615c.418-.361.459-.973.111-1.376zm18.632 5.24l-6.304-5.366c-.404-.348-1.03-.306-1.378.111-.348.403-.306 1.029.111 1.376l5.427 4.615-5.427 4.615c-.404.348-.459.959-.111 1.376.348.403.96.459 1.378.111l6.304-5.365c.223-.181.348-.459.348-.737s-.125-.542-.348-.737zm-11.257-9.452a.97.97 0 0 0-1.155.751l-3.924 18.626a.97.97 0 1 0 1.906.403l3.924-18.626a.97.97 0 0 0-.751-1.154zM52.46 0H6.54A6.55 6.55 0 0 0 0 6.533v38.934A6.55 6.55 0 0 0 6.54 52h45.92A6.55 6.55 0 0 0 59 45.467V6.533A6.55 6.55 0 0 0 52.46 0zM6.54 1.946h45.92c2.533 0 4.592 2.057 4.592 4.587v7.103H1.948V6.533c0-2.53 2.059-4.587 4.592-4.587zm45.92 48.108H6.54c-2.533 0-4.592-2.057-4.592-4.587V15.582h55.104v29.885c0 2.53-2.059 4.587-4.592 4.587zM16.629 10.925c1.712 0 3.089-1.376 3.089-3.072s-1.378-3.086-3.075-3.086h-.014c-1.684.028-3.033 1.39-3.033 3.072.014 1.682 1.35 3.058 3.033 3.086zm-.779-3.878a1.14 1.14 0 0 1 .793-.334c.612.014 1.099.514 1.099 1.14 0 .612-.487 1.112-1.099 1.126-.459 0-.877-.278-1.044-.709a1.09 1.09 0 0 1 .25-1.223zm-8.683 3.85c1.712 0 3.075-1.376 3.075-3.072S8.864 4.754 7.166 4.754 4.091 6.13 4.091 7.826s1.378 3.072 3.075 3.072zm0-4.212a1.13 1.13 0 0 1 1.113 1.14c0 .612-.501 1.112-1.113 1.126a1.14 1.14 0 0 1-1.113-1.14c0-.626.501-1.112 1.113-1.126zm18.938 4.267c1.712 0 3.089-1.376 3.089-3.072s-1.378-3.086-3.075-3.086h-.014c-1.698.014-3.061 1.376-3.061 3.072s1.364 3.072 3.061 3.086zm.014-4.212c.626.014 1.127.514 1.127 1.14a1.12 1.12 0 0 1-1.127 1.126c-.626-.014-1.127-.514-1.127-1.14a1.13 1.13 0 0 1 1.127-1.126z" fill="url(#A)"/><defs><linearGradient id="A" x1="3.654" y1=".182" x2="55.29" y2="51.874" gradientUnits="userSpaceOnUse"><stop stop-color="#aa30be"/><stop offset="1" stop-color="#5723b5"/></linearGradient></defs></svg>